<?xml version="1.0" encoding="utf-8"?>
<!-- Generator: Adobe Illustrator 27.3.1, SVG Export Plug-In . SVG Version: 6.00 Build 0)  -->
<svg version="1.1" id="Layer_1" xmlns="http://www.w3.org/2000/svg" xmlns:xlink="http://www.w3.org/1999/xlink" x="0px" y="0px"
	 viewBox="0 0 213.3 143.8" style="enable-background:new 0 0 213.3 143.8;" xml:space="preserve">
<style type="text/css">
	.st0{fill:#444444;stroke:#444444;stroke-miterlimit:10;}
	.st1{font-family:'BodoniSvtyTwoITCTT-Book';}
	.st2{font-size:48px;}
</style>
<g>
	<g>
		<path class="st0" d="M91.1,81c-0.6-1.4-0.8-3.1-1.8-4.3c-0.8-1-2.3-1.4-2.3-2.7c-0.1-2.2,1.2-4.4,1.8-6.5c0.4-1.3,0.6-2.6-0.4-3.7
			c-0.8-0.9-2-1.3-3.1-1.8c-1.7-0.9-3-2.2-3.8-3.9c-1.8-3.6-2.5-7.8-2.2-11.8c-0.2,0.2-0.3,0.3-0.5,0.5c3.8,0.4,8.3,1.1,11.2,3.6
			c3.9,3.3,3.3,9.7-1.6,11.7c-0.5,0.2-0.3,1.1,0.2,0.9c4.9-2.1,6.5-8.3,2.9-12.3c-3.1-3.5-8.4-4.4-12.8-4.9c-0.3,0-0.4,0.2-0.5,0.5
			c-0.3,3.5,0.3,6.8,1.4,10.1c1.1,3.2,2.8,5.5,5.9,6.9c2.3,1,2.7,2,2,4.3c-0.6,2.1-1.8,4.1-1.7,6.3c0,1.2,0.4,1.8,1.4,2.4
			c1.8,1.2,2,3.4,2.8,5.2C90.5,82,91.3,81.5,91.1,81L91.1,81z"/>
	</g>
</g>
<g>
	<g>
		<path class="st0" d="M139.2,81c-0.4-1-0.9-2.1-1.1-3.2c-0.1-1.2,0-2.4-0.2-3.6c-0.2-1.1-0.5-2.2-0.8-3.3c-0.5-1.6-0.4-3.3,0.1-4.9
			c0.8-2.4,2.3-4.4,4.2-6c1.2-1,2.6-1.8,3.7-2.8c1.1-1,2-2.1,3-3.1c2.3-2.3,5-4.3,7.7-6.1c1.5-1,3.1-1.9,4.4-3.1
			c3.9-3.4,4.1-9,2.9-13.8c-1.3-4.9-4.5-9.1-8.4-12.3c-0.2-0.2-0.6-0.2-0.7,0.1c-0.9,1.9-2.1,3.6-3.6,5.2c-1.2,1.2-2.5,2.2-3.8,3.4
			c-2.1,2-3.8,4.4-5.1,7.1c-1.5,3.1-2.3,6.6-1.6,10c0.8,3.5,3.1,6.3,6.2,8.2c0.5,0.3,1-0.5,0.5-0.8c-3.3-2-5.7-5.2-6-9.2
			c-0.2-3.1,0.8-6.2,2.3-8.9c1.4-2.5,3.3-4.8,5.4-6.7c2.6-2.3,4.9-4.6,6.4-7.8c-0.2,0-0.5,0.1-0.7,0.1c3.6,2.9,6.6,6.7,7.9,11.2
			c0.9,2.9,1.3,6.6,0.3,9.6c-0.7,2-1.9,3.5-3.6,4.8c-1.8,1.3-3.7,2.4-5.5,3.7c-2.6,1.8-5,3.9-7.1,6.2c-0.9,1-1.7,1.9-2.8,2.6
			c-1.4,1-2.7,2-3.9,3.2c-1.5,1.6-2.6,3.4-3.2,5.5c-0.4,1.4-0.5,2.8-0.2,4.3c0.2,1.3,0.8,2.4,1,3.7c0.2,1.3,0.1,2.6,0.3,3.9
			c0.2,1.2,0.7,2.3,1.2,3.4C138.6,82,139.4,81.5,139.2,81L139.2,81z"/>
	</g>
</g>
<g>
	<path class="st0" d="M59,89c0,3-0.9,5.5-2.8,7.6c-1.8,2-4.1,3.1-6.9,3.1s-5.2-1-7.1-3.1c-1.9-2-2.8-4.6-2.8-7.6
		c0-3.1,0.9-5.7,2.8-7.7c1.9-2,4.2-3.1,6.9-3.1c2.8,0,5.1,1,7,3.1C58.1,83.4,59,86,59,89z M54.8,89c0-3.4-0.5-6.1-1.6-8
		c-0.8-1.4-2.1-2.1-3.9-2.1c-1.7,0-3.1,0.9-4.1,2.7c-1,1.8-1.5,4.3-1.5,7.4s0.5,5.6,1.6,7.3c1,1.8,2.5,2.6,4.4,2.6
		c1.4,0,2.5-0.5,3.2-1.6C54.1,95.3,54.8,92.5,54.8,89z"/>
	<path class="st0" d="M81.4,89c0,3-0.9,5.5-2.8,7.6c-1.9,2.1-4.1,3.1-6.9,3.1s-5.2-1-7.1-3.1c-1.9-2-2.8-4.6-2.8-7.6
		c0-3.1,0.9-5.7,2.8-7.7c1.9-2,4.2-3.1,6.9-3.1c2.8,0,5.1,1,7,3.1C80.5,83.4,81.4,86,81.4,89z M77.2,89c0-3.4-0.5-6.1-1.6-8
		c-0.8-1.4-2.1-2.1-3.9-2.1c-1.7,0-3.1,0.9-4.1,2.7c-1,1.8-1.5,4.3-1.5,7.4s0.5,5.6,1.6,7.3c1,1.8,2.5,2.6,4.4,2.6
		c1.4,0,2.5-0.5,3.2-1.6C76.5,95.3,77.2,92.5,77.2,89z"/>
	<path class="st0" d="M111.1,97.9c-0.8-0.1-1.6-0.2-2.3-0.3c0-0.5,0-0.9,0-1.4c0-3.9,0-7.7,0-11.6c0-1.8-0.2-3.1-0.7-3.9
		s-1.3-1.1-2.4-1.1c-0.8,0-1.6,0.2-2.2,0.7c-0.7,0.5-1.2,1.1-1.5,1.8c-0.1,0.5-0.2,2.2-0.2,5.2v8.8c0,1,0,1.6,0,1.8
		c0.1,0.4,0.4,0.6,0.8,0.6h1.3c0.4,0,0.6,0.1,0.6,0.3c0,0.2-0.2,0.3-0.7,0.3h-0.3c-0.3,0-1.4,0-3.2,0c-0.6,0-1.5,0-2.5,0
		s-1.7,0-1.9,0h-0.5c-0.4,0-0.6-0.1-0.6-0.4c0-0.2,0.1-0.2,0.3-0.3c0.2,0,0.8,0,1.9,0c0.5,0,0.8-0.2,0.8-0.5v-0.7v-13
		c0-1.8-0.2-3-0.7-3.7c-0.4-0.7-1.2-1-2.4-1c-1.1,0-2.1,0.4-2.9,1.1c-0.3,0.3-0.6,0.7-0.8,1c-0.1,0.9-0.2,1.5-0.2,1.8
		c0,2.4,0.5,5.3,0.3,8.2c-0.1,1.6-0.2,2.4-0.6,3.5c-0.3,0.7-0.7,1.3-1,2.4c-0.2,0.7-0.2,1.3-0.2,1.7c-0.4,0.1-0.7,0.1-1.1,0.2
		c0-0.4,0-0.9,0.2-1.6c0.1-0.6,0.3-1,0.6-1.7c0.5-1.4,0.8-2.1,0.9-2.4c0.2-0.7,0.3-1.2,0.2-4.3c0-1.1-0.1-2.7-0.3-4.8
		c-0.2-2.5-0.3-3.7-0.3-3.8c-0.1-0.8-0.1-1.2-0.1-1.2c0-0.1,0-0.2,0-0.5c0-0.2-0.1-0.4-0.1-0.5c0.3-0.1,0.6-0.3,0.9-0.4
		c0,0.1,0.1,0.2,0.1,0.4c0.1,0.3,0.1,0.5,0.2,0.8c0.1,0.4,0.1,0.8,0.1,0.8c0,0.2,0.1,0.5,0.1,0.9c0.3-0.5,0.9-1.3,1.8-1.9
		c1.1-0.7,2.4-1.1,3.9-1.1c2.8,0,4.5,1,5,3.1c1.2-2.1,3.2-3.1,5.8-3.1c2.3,0,3.9,0.8,4.7,2.5c0.8,1.7,0.7,3.4,0.7,4.3
		c-0.1,1.6-0.1,4.2-0.1,9.4c0,1.6,0,2.8,0.1,3.6C112.1,98,111.6,98,111.1,97.9z"/>
	<path class="st0" d="M131.3,93.2c0,1.8-0.7,3.3-2,4.6c-1.3,1.3-2.9,1.9-4.7,1.9c-1,0-2.3-0.4-3.8-1.1c-0.4-0.2-0.8-0.3-1.1-0.3
		c-0.4,0-0.8,0.3-1,0.9c-0.1,0.4-0.3,0.6-0.5,0.6s-0.3-0.1-0.3-0.4c0-0.2,0-0.3,0-0.6c0-0.6,0-1.5,0-2.8c0-0.1,0-0.5,0-1.1
		c0-0.7,0-1.1,0-1.3v-0.5c0-0.3,0.1-0.5,0.3-0.5c0.2,0,0.4,0.2,0.4,0.5c0.2,1.4,0.6,2.6,1.2,3.4c1.2,1.6,2.9,2.4,5,2.4
		c1.1,0,2-0.3,2.7-1s1-1.5,1-2.6c0-1.2-0.4-2.2-1.2-2.9c-0.4-0.4-0.8-0.7-1.2-0.9c-0.4-0.2-1.4-0.6-3.1-1.2
		c-3.5-1.3-5.2-3.3-5.2-5.9c0-1.7,0.6-3.2,1.8-4.4c1.2-1.2,2.6-1.8,4.4-1.8c0.6,0,1.5,0.2,2.8,0.6c0.3,0.1,0.6,0.1,0.8,0.1
		c0.6,0,1-0.3,1.2-0.9c0.1-0.3,0.2-0.5,0.4-0.5c0.2,0,0.3,0.1,0.3,0.4c0,0,0,0.1,0,0.3v2c0,0.7,0,1.9,0.2,3.6v0.1
		c0,0.2-0.1,0.4-0.4,0.4c-0.2,0-0.4-0.5-0.7-1.4c-0.3-1.1-0.9-2-1.8-2.7s-1.8-1-3-1c-1.1,0-1.9,0.3-2.6,1s-1,1.5-1,2.5
		c0,1.6,1,2.7,3.1,3.6c3.2,1.3,5.3,2.3,6.2,3.2C130.7,90.3,131.3,91.6,131.3,93.2z"/>
	<path class="st0" d="M153.9,88.8c0,3.1-0.9,5.7-2.6,7.8c-1.8,2.1-4,3.1-6.6,3.1c-0.8,0-2-0.1-3.3-0.9c-1.1-0.7-1.6-1.6-1.9-2.1
		c-0.4-5.2-0.8-10.3-1.2-15.5c0.1-0.1,0.2-0.1,0.3-0.2c0.4-0.3,0.8-0.3,0.9-0.4c0.8-0.2,0.7-1,1.9-1.6c1.3-0.7,2.5-0.8,3.2-0.8
		c2.7,0,4.9,1,6.6,3C153,83.2,153.9,85.7,153.9,88.8z M149.7,88.8c0-2.4-0.4-4.5-1.1-6.2c-1-2.4-2.5-3.6-4.6-3.6
		c-1.1,0-2,0.4-2.8,1.1c-0.8,0.8-1.2,1.7-1.3,2.8c-0.1,1.4,0,4.3,0,8.6c0,2.2,0.1,3.5,0.1,4c0.1,0.5,0.3,0.9,0.6,1.4
		c0.9,1.3,2.1,1.9,3.5,1.9c1.6,0,2.8-0.7,3.7-2.1C149.1,94.7,149.7,92.1,149.7,88.8z"/>
	<path class="st0" d="M175.3,97c0,0.5-0.5,1.1-1.6,1.7s-2.2,0.9-3.2,0.9c-2.1,0-3.2-1.1-3.3-3.3c-1.2,2.3-3,3.5-5.5,3.5
		c-1.3,0-2.4-0.4-3.3-1.2c-0.9-0.8-1.3-1.8-1.3-3.1c0-2.5,1.5-4.6,4.6-6.1c1-0.5,2.9-1,5.5-1.5v-1.2c0-2.7-0.1-4.5-0.4-5.4
		c-0.5-1.6-1.6-2.4-3.4-2.4c-1.1,0-2,0.3-2.7,0.9s-1.1,1.3-1.1,2.2c0,0.3,0.2,0.4,0.6,0.4c0.4,0,0.7,0.2,1,0.6s0.5,0.8,0.5,1.3
		c0,1.4-0.7,2.1-2,2.1c-0.7,0-1.3-0.2-1.8-0.7s-0.7-1.1-0.7-1.8c0-1.5,0.6-2.7,1.7-3.8c1.3-1.2,3-1.7,5.3-1.7c3.4,0,5.5,0.9,6.3,2.8
		c0.3,0.7,0.4,2.1,0.4,4.2v8.7c0,1.4,0,2.3,0,2.5c0.2,1.1,0.6,1.7,1.4,1.7c0.9,0,1.6-0.3,2.1-0.9c0.3-0.3,0.5-0.5,0.7-0.5
		C175.2,96.7,175.3,96.8,175.3,97z M167.1,92.1v-3.4c-2.3,0.5-3.9,1.2-4.9,2.1s-1.5,2-1.5,3.4c0,1,0.3,1.8,0.9,2.4
		c0.6,0.6,1.3,1,2.1,1c1.3,0,2.4-0.7,3.2-2.2C167,95,167.1,93.9,167.1,92.1z"/>
	<path class="st0" d="M192.2,83c0,1.4-0.7,2.1-2.1,2.1c-1.4,0-2.1-0.7-2.1-2c0-0.3,0.2-0.9,0.5-1.5c0.1-0.2,0.1-0.4,0.1-0.7
		c0-0.6-0.3-1.1-1-1.5s-1.4-0.6-2.4-0.6c-1.9,0-3.3,0.8-4.3,2.4s-1.5,3.9-1.5,6.8c0,3.3,0.5,5.8,1.6,7.6c1.1,1.8,2.6,2.7,4.5,2.7
		c1.3,0,2.5-0.4,3.5-1.2c0.5-0.4,1.1-1.1,1.8-2.1c0.2-0.2,0.3-0.2,0.4-0.2c0.3,0,0.5,0.1,0.5,0.4c0,0.4-0.5,1.2-1.6,2.3
		c-1.4,1.5-3.2,2.2-5.4,2.2c-2.7,0-5-1-6.8-2.9c-1.8-2-2.7-4.4-2.7-7.4c0-3.2,0.9-5.9,2.8-8c1.9-2.1,4.3-3.1,7.1-3.1
		c1.8,0,3.5,0.5,4.9,1.4C191.5,80.6,192.2,81.8,192.2,83z"/>
	<path class="st0" d="M211.7,94c0,0.3-0.2,0.9-0.7,1.7c-0.5,0.8-1,1.4-1.5,1.9c-1.3,1.4-3.1,2.1-5.4,2.1c-2.8,0-5.1-1-7-3
		s-2.8-4.5-2.8-7.5c0-3.1,0.9-5.7,2.7-7.8c1.8-2.1,4-3.1,6.7-3.1c2.2,0,4.1,0.6,5.5,1.9c1.5,1.3,2.3,2.9,2.4,5c-1,0.2-2.3,0.2-4,0.2
		h-3.3c-0.2,0-2.1,0-5.6,0.1c-0.2,1-0.2,2-0.2,2.9c0,3.1,0.6,5.5,1.8,7.2s2.9,2.5,5.1,2.5c1.2,0,2.2-0.3,3-0.8
		c0.7-0.6,1.6-1.6,2.4-3.2c0.1-0.2,0.3-0.4,0.5-0.4C211.6,93.7,211.7,93.8,211.7,94z M207.7,84.5c-0.1-3.7-1.5-5.6-4-5.6
		s-4.1,1.9-4.7,5.6H207.7z"/>
</g>
<g>
	<g>
		<path class="st0" d="M138.3,81.5c0,4.6,0.2,9.1,0.2,13.6c0,2.4,0.2,4.7-0.2,7c-0.3,1.5-0.7,2.8-2.2,3.3c-1.1,0.4-2.3,0.6-3.1,1.6
			c-0.8,1-0.7,2-0.7,3.2c0,1.9-1.1,3.1-2.5,4.1c-2.3,1.7-4.9,2.6-7.5,3.7c-1.5,0.7-2.6,1.8-2.8,3.5c-0.3,2.6,0,5.5,0.7,8
			c0.2,0.9,0.5,1.7,0,2.6c-0.8,1.2-2.3,1.5-3.5,2.2c-0.9,0.6-1.6,1.4-1.7,2.5c-0.2,1.7-0.4,3.1-1.2,4.6c-0.3,0.6,0.6,1.1,0.9,0.5
			c0.6-1.2,1.1-2.4,1.2-3.7c0.2-1.4,0.1-2.3,1.5-3.1c1.7-0.9,3.9-1.6,4.1-3.8c0-0.7-0.2-1.5-0.4-2.2c-0.4-1.4-0.6-2.9-0.6-4.4
			c-0.1-2.4-0.3-4.6,2.2-5.7c2.6-1.2,5.1-2,7.4-3.7c1-0.7,2-1.5,2.6-2.6c0.7-1.3,0.4-2.4,0.6-3.8c0.3-2,2-2.1,3.5-2.7
			c1-0.4,1.7-1.2,2.1-2.3c0.8-2,0.8-4.3,0.7-6.4c-0.2-5.4-0.3-10.8-0.3-16.2C139.3,80.8,138.3,80.8,138.3,81.5L138.3,81.5z"/>
	</g>
</g>
<g>
	<g>
		<path class="st0" d="M88.3,98.4c-0.4,3.1,1.1,5.3,3.4,7.1c2.6,2,4.2,5.4,4.6,8.6c0.4,3.5-1.5,6.3-4,8.6c-1.2,1.2-2.6,2.2-4,3.2
			c-1,0.7-2.2,1.4-2.8,2.5c-1.9,3.2,0.2,7.2,2,9.9c0.4,0.6,1.3,0,0.9-0.5c-1.6-2.5-4.2-7.1-1.3-9.7c1.1-1,2.5-1.8,3.6-2.7
			c1.2-1,2.4-2,3.5-3.1c1.9-2.1,3.3-4.6,3.1-7.5c-0.1-2.9-1.3-5.8-3-8.1c-0.9-1.1-1.9-1.9-3-2.8c-1.6-1.4-2.3-3.4-2.1-5.5
			C89.5,97.8,88.4,97.8,88.3,98.4L88.3,98.4z"/>
	</g>
</g>
<g>
	<g>
		<path class="st0" d="M91.9,105.6c2.6,1.6,5.5,2.4,8.5,2c1.2-0.2,2.5-0.8,3.7-0.6c1.5,0.3,2,1.5,2.4,2.7c1,2.8,2.7,4.6,5.5,5.8
			c2.8,1.2,7.5,2.3,7.4,6.1c0,0.7,1,0.7,1.1,0c0-3.2-2.8-4.9-5.4-6c-1.8-0.7-3.7-1.3-5.2-2.5c-1.4-1.1-1.9-2.6-2.5-4.2
			c-0.8-2.2-2.5-3.3-4.8-2.9c-1.6,0.3-3,0.8-4.7,0.6c-1.9-0.2-3.8-0.9-5.4-1.9C91.9,104.4,91.3,105.3,91.9,105.6L91.9,105.6z"/>
	</g>
</g>
<g>
	<path class="st0" d="M115.5,98.8c0,0.2-0.3,0.3-0.8,0.3c-0.1,0-0.4,0-1,0s-1.4,0-2.4,0c-0.1,0-1.7,0-4.9,0c-0.4,0-0.6-0.1-0.6-0.3
		c0-0.2,0.2-0.3,0.5-0.3h0.4h1.2c0.5,0,0.7-0.1,0.8-0.3c0.1-0.2,0.1-0.8,0.1-2V84.7c0-1.8-0.2-3.1-0.7-3.8c-0.5-0.8-1.3-1.1-2.4-1.1
		c-0.8,0-1.5,0.2-2.2,0.7c-0.5,0.3-0.8,0.7-1.1,1.1c-0.3,0.4-0.3,0.7-0.4,0.7c0,0,0.2-1.7,1.3-2.8c1.2-1.2,3-1.1,4-1.1
		c2.3,0,3.8,0.8,4.6,2.5c0.4,0.9,0.6,2.3,0.6,4.3v11.4c0,1.1,0.1,1.6,0.2,1.7s0.6,0.2,1.4,0.3h0.8C115.3,98.5,115.5,98.6,115.5,98.8
		z"/>
</g>
<g>
	<g>
		<path class="st0" d="M39.3,56.8c1.1-6.4,1.7-15.9-3.5-20.9c-1.7-1.7-3.7-2.3-5.8-3.1c-1.6-0.6-3-1.7-4-3.1
			c-1.5-2.1-2.1-4.9-2.3-7.5c-0.3-5.2,1.1-10.5,3-15.3c-0.3,0-0.5,0.1-0.8,0.1c1.8,2.6,3.8,5,6.1,7.2c1.4,1.3,2.5,2.8,3.6,4.4
			c1.5,2.1,2.9,4.4,3.4,7c0.7,3.5-0.7,6.6-3.4,8.9c-0.4,0.4,0.2,1,0.6,0.6c2.4-2.1,4-5,3.8-8.2c-0.2-2.8-1.5-5.5-3-7.8
			c-1-1.6-2.1-3.3-3.5-4.6c-2.5-2.5-4.9-5.1-7-8c-0.2-0.3-0.7-0.3-0.8,0.1C23,13.2,21,21.7,24.2,28.5c1.2,2.5,3.2,4.2,5.8,5.2
			c2.5,0.9,4.7,1.9,6.3,4.2c1.1,1.6,1.7,3.4,2.1,5.3c1,4.3,0.7,9-0.1,13.3C38.3,57.1,39.2,57.4,39.3,56.8L39.3,56.8z"/>
	</g>
</g>
<g>
	<g>
		<path class="st0" d="M33,68.1c0.8-2.8,1.6-5.9,3.7-8.1c1.9-1.9,3.5-4,5.2-6.1c0.9-1.1,1.9-2.3,2.9-3.3c1.2-1.1,2.4-2.2,3.3-3.6
			c0.8-1.3,1.5-2.6,2.3-3.9c1-1.5,2.5-2.8,4.1-3.7c2.7-1.5,5.6-2.4,8-4.4c2.6-2.1,4.4-5.1,5.5-8.3c1.3-3.9,1.5-8.4,0.5-12.4
			c-1.3-5.2-4.8-9.7-9.2-12.8c-0.1-0.1-0.3-0.1-0.5,0C50.2,7.2,43,17.3,43.5,28c0.2,4.6,1.9,9.1,4.4,12.9c0.3,0.5,1.1,0,0.8-0.5
			c-3-4.4-4.6-9.6-4.3-15c0.3-4.5,2-8.8,4.5-12.6c2-3,4.4-5.6,7-7.9c0.8-0.7,1.6-1.4,2.5-2c0.1-0.1,0.6-0.3,0.7-0.5
			c0.1-0.3-0.2,0.1-0.2,0c0.1,0.2,0.4,0.3,0.6,0.4c6,4.5,9.2,11.4,8.5,18.8c-0.5,5.3-2.9,10.7-7.5,13.6c-2,1.3-4.2,2-6.2,3.1
			s-3.7,2.7-4.9,4.6c-0.8,1.3-1.5,2.6-2.3,3.8c-0.9,1.3-2,2.2-3.1,3.3c-1.9,1.8-3.4,4-5.1,6c-1.3,1.6-3.1,3-4.2,4.8
			c-1.3,2-1.9,4.6-2.6,6.8C31.9,68.4,32.8,68.6,33,68.1L33,68.1z"/>
	</g>
</g>
<g>
	<g>
		<path class="st0" d="M33.2,97.5c0.2,3-1.4,5.5-3.6,7.4c-1.1,1-2.4,1.8-3.8,2.2c-0.9,0.3-1.8,0.4-2.7,0.8c-1.9,0.9-2.5,2.8-2.6,4.8
			c-0.2,3.3-1.3,6.3-3.4,8.9c-0.4,0.5,0.3,1.3,0.7,0.7c1.9-2.4,3.3-5.2,3.6-8.3c0.1-1.2,0-2.6,0.6-3.7c0.6-1.1,1.5-1.6,2.7-1.9
			c4.8-1.3,9.9-5.5,9.5-11C34.2,96.8,33.1,96.8,33.2,97.5L33.2,97.5z"/>
	</g>
</g>
<path class="st0" d="M31.4,67.5c-1.4,4.8-1.7,10.3-1.7,10.3c-0.1,2-0.1,4-0.1,7.9c0,3.4,0,8.7,1.4,10.5c0.1,0.1,0.6,0.8,1,1.9
	c0.2,0.5,0.4,1,0.4,1.7c0,0.5,0,1.3-0.5,2.3c0.4-0.1,0.9-0.3,1.3-0.4c0.2-0.3,0.4-0.8,0.6-1.4C34,99.6,34,99,34,98.5
	c1.3,1.4,1.6,1.7,1.7,1.6c0.1,0-0.6-0.7-1-1.9c0-0.1-0.1-0.2-0.1-0.3c-0.2-0.5-0.2-0.9-0.2-1c-0.1-0.8-1.1-2.4-1.1-2.5
	c-0.5-0.7-0.5-1.6-0.5-4.4c0-3.4,0-5.1,0-6c0.1-4.6,0-5.6,0.1-9.4c0.1-1.7,0.1-2.9,0.3-4.2c0.2-1.6,0.6-3,0.7-4.1
	c0-0.2,0.1-0.8,0.2-1.7c0-0.2,0.1-0.3,0.1-0.4c-0.3,0-0.7,0-1,0c-0.1,0.2-0.3,0.4-0.5,0.7c-0.2,0.3-0.3,0.5-0.4,0.5
	C32,65.9,31.6,66.8,31.4,67.5z"/>
<path class="st0" d="M89.6,99c0.3-0.7,0.8-1.4,0.8-1.5c0.4-0.6,0.5-1.2,0.8-2.4c0.3-1.4,0.4-2.8,0.4-5.5c0.1-3.1,0.1-4.7,0-5.5
	c0-0.1,0-0.9,0-2.6c0-0.1,0-0.3,0.1-0.5c0-0.1,0.1-0.2,0.2-0.3c-0.1-0.1-0.3-0.3-0.4-0.6c-0.5-0.6-0.8-1.2-1.1-1.8
	c-0.3-0.6-0.4-0.8-0.7-1.3c-0.2-0.2-0.3-0.4-0.4-0.5c-0.2,0.3-0.4,0.6-0.6,0.8c0,0.1,0.1,0.3,0.1,0.3c0.1,0.3,0.1,0.6,0.1,1.2
	c0,0.4,0,0.5,0,0.8c0.1,3.3-0.2,8.7-0.2,8.7c-0.2,3.8-0.4,5.6-0.4,6.1c-0.2,1.2-0.4,2.6-0.2,4.4c0.1,1.2,0.4,2.1,0.6,2.7
	c0.2-0.5,0.4-0.8,0.5-1c0,0,0.1-0.1,0.2-0.3c0.1-0.2,0-0.3,0-0.4C89.3,99.8,89.3,99.6,89.6,99z"/>
<path class="st0" d="M137.4,82.2c-0.1,1.1-0.2,1.9-0.2,2c-0.2,2.9,0,8.6,0,8.6c0,1.4,0.2,6.9,0.2,9.2c0,0,0,0.5-0.1,1.2
	c0,0,0,0.5-0.2,1.2c0,0.2-0.1,0.4-0.3,0.6c-0.1,0.1-0.2,0.2-0.3,0.2c0.2,0.3,0.5,0.5,0.7,0.8c0.6-0.3,1.6-0.8,2.2-1.9
	c0.5-0.9,0.5-1.8,0.5-2.2c-0.2-4.2,0.1-8.5,0-12.7c-0.1-1.8-0.1-4.4,0.3-7.6c-0.3-0.3-0.6-0.6-1-1c-0.4-0.5-0.6-0.9-0.8-1.3
	c-0.4-0.1-0.7-0.3-1.1-0.4c0.1,0.7,0.2,1.3,0.2,1.8C137.5,81.2,137.5,81.7,137.4,82.2z"/>
<text transform="matrix(1 0 0 1 1.7449 99.7101)" class="st0 st1 st2">b</text>
<text transform="matrix(1 0 0 1 29.9443 218.86)" class="st1 st2" style="fill:#22B573;">b</text>
<g>
	<g>
		<path class="st0" d="M32.3,98.2c2.6,1.4,3.3,4.8,2.9,8.6c-0.1,1.9-0.6,4-1.5,5.9c-0.5,1.3-1.2,2.4-1.7,3.8
			c-0.9,2.8,0.1,4.7,1.7,5.9c2.5,2.1,4,5.1,4.3,9.2c0.1,0.8,1.3,0.4,1.2-0.5c-0.3-3.7-1.4-7-3.6-9.1c-0.9-0.8-2.1-1.5-2.5-2.8
			c-0.4-1.4,0-2.7,0.8-4.4c3-6.6,4-15.3-0.8-17.9C32.6,96.6,31.6,97.9,32.3,98.2z"/>
	</g>
</g>
</svg>
