<?xml version="1.0" encoding="utf-8"?>
<!-- Generator: Adobe Illustrator 27.3.1, SVG Export Plug-In . SVG Version: 6.00 Build 0)  -->
<svg version="1.1" id="Layer_1" xmlns="http://www.w3.org/2000/svg" xmlns:xlink="http://www.w3.org/1999/xlink" x="0px" y="0px"
	 viewBox="0 0 210.2 140.7" style="enable-background:new 0 0 210.2 140.7;" xml:space="preserve">
<style type="text/css">
	.st0{fill:#D9E021;}
	.st1{fill:#22B573;}
	.st2{fill:none;stroke:#22B573;stroke-miterlimit:10;}
	.st3{font-family:'BodoniSvtyTwoITCTT-Book';}
	.st4{font-size:48px;}
</style>
<g>
	<g>
		<path class="st0" d="M89.6,79.6c-0.6-1.4-0.8-3.1-1.8-4.3c-0.8-1-2.3-1.4-2.3-2.7c-0.1-2.2,1.2-4.4,1.8-6.5
			c0.4-1.3,0.6-2.6-0.4-3.7c-0.8-0.9-2-1.3-3.1-1.8c-1.7-0.9-3-2.2-3.8-3.9c-1.8-3.6-2.5-7.8-2.2-11.8c-0.2,0.2-0.3,0.3-0.5,0.5
			c3.8,0.4,8.3,1.1,11.2,3.6c3.9,3.3,3.3,9.7-1.6,11.7c-0.5,0.2-0.3,1.1,0.2,0.9c4.9-2.1,6.5-8.3,2.9-12.3
			c-3.1-3.5-8.4-4.4-12.8-4.9c-0.3,0-0.4,0.2-0.5,0.5c-0.3,3.5,0.3,6.8,1.4,10.1c1.1,3.2,2.8,5.5,5.9,6.9c2.3,1,2.7,2,2,4.3
			c-0.6,2.1-1.8,4.1-1.7,6.3c0,1.2,0.4,1.8,1.4,2.4c1.8,1.2,2,3.4,2.8,5.2C89,80.6,89.8,80.1,89.6,79.6L89.6,79.6z"/>
	</g>
</g>
<g>
	<g>
		<path class="st0" d="M137.7,79.6c-0.4-1-0.9-2.1-1.1-3.2c-0.1-1.2,0-2.4-0.2-3.6c-0.2-1.1-0.5-2.2-0.8-3.3
			c-0.5-1.6-0.4-3.3,0.1-4.9c0.8-2.4,2.3-4.4,4.2-6c1.2-1,2.6-1.8,3.7-2.8c1.1-1,2-2.1,3-3.1c2.3-2.3,5-4.3,7.7-6.1
			c1.5-1,3.1-1.9,4.4-3.1c3.9-3.4,4.1-9,2.9-13.8c-1.3-4.9-4.5-9.1-8.4-12.3c-0.2-0.2-0.6-0.2-0.7,0.1c-0.9,1.9-2.1,3.6-3.6,5.2
			c-1.2,1.2-2.5,2.2-3.8,3.4c-2.1,2-3.8,4.4-5.1,7.1c-1.5,3.1-2.3,6.6-1.6,10c0.8,3.5,3.1,6.3,6.2,8.2c0.5,0.3,1-0.5,0.5-0.8
			c-3.3-2-5.7-5.2-6-9.2c-0.2-3.1,0.8-6.2,2.3-8.9c1.4-2.5,3.3-4.8,5.4-6.7c2.6-2.3,4.9-4.6,6.4-7.8c-0.2,0-0.5,0.1-0.7,0.1
			c3.6,2.9,6.6,6.7,7.9,11.2c0.9,2.9,1.3,6.6,0.3,9.6c-0.7,2-1.9,3.5-3.6,4.8c-1.8,1.3-3.7,2.4-5.5,3.7c-2.6,1.8-5,3.9-7.1,6.2
			c-0.9,1-1.7,1.9-2.8,2.6c-1.4,1-2.7,2-3.9,3.2c-1.5,1.6-2.6,3.4-3.2,5.5c-0.4,1.4-0.5,2.8-0.2,4.3c0.2,1.3,0.8,2.4,1,3.7
			c0.2,1.3,0.1,2.6,0.3,3.9c0.2,1.2,0.7,2.3,1.2,3.4C137.1,80.6,137.9,80.1,137.7,79.6L137.7,79.6z"/>
	</g>
</g>
<g>
	<path class="st1" d="M57.5,87.6c0,3-0.9,5.5-2.8,7.6c-1.8,2-4.1,3.1-6.9,3.1c-2.8,0-5.2-1-7.1-3.1c-1.9-2-2.8-4.6-2.8-7.6
		c0-3.1,0.9-5.7,2.8-7.7s4.2-3.1,6.9-3.1c2.8,0,5.1,1,7,3.1C56.6,82,57.5,84.6,57.5,87.6z M53.3,87.6c0-3.4-0.5-6.1-1.6-8
		c-0.8-1.4-2.1-2.1-3.9-2.1c-1.7,0-3.1,0.9-4.1,2.7c-1,1.8-1.5,4.3-1.5,7.4s0.5,5.6,1.6,7.3c1,1.8,2.5,2.6,4.4,2.6
		c1.4,0,2.5-0.5,3.2-1.6C52.6,93.9,53.3,91.1,53.3,87.6z"/>
	<path class="st1" d="M79.9,87.6c0,3-0.9,5.5-2.8,7.6s-4.1,3.1-6.9,3.1s-5.2-1-7.1-3.1c-1.9-2-2.8-4.6-2.8-7.6
		c0-3.1,0.9-5.7,2.8-7.7c1.9-2,4.2-3.1,6.9-3.1c2.8,0,5.1,1,7,3.1C79,82,79.9,84.6,79.9,87.6z M75.7,87.6c0-3.4-0.5-6.1-1.6-8
		c-0.8-1.4-2.1-2.1-3.9-2.1c-1.7,0-3.1,0.9-4.1,2.7c-1,1.8-1.5,4.3-1.5,7.4s0.5,5.6,1.6,7.3c1,1.8,2.5,2.6,4.4,2.6
		c1.4,0,2.5-0.5,3.2-1.6C75,93.9,75.7,91.1,75.7,87.6z"/>
	<path class="st1" d="M109.6,96.5c-0.8-0.1-1.6-0.2-2.3-0.3c0-0.5,0-0.9,0-1.4c0-3.9,0-7.7,0-11.6c0-1.8-0.2-3.1-0.7-3.9
		s-1.3-1.1-2.4-1.1c-0.8,0-1.6,0.2-2.2,0.7c-0.7,0.5-1.2,1.1-1.5,1.8c-0.1,0.5-0.2,2.2-0.2,5.2v8.8c0,1,0,1.6,0,1.8
		c0.1,0.4,0.4,0.6,0.8,0.6h1.3c0.4,0,0.6,0.1,0.6,0.3c0,0.2-0.2,0.3-0.7,0.3H102c-0.3,0-1.4,0-3.2,0c-0.6,0-1.5,0-2.5,0
		s-1.7,0-1.9,0h-0.5c-0.4,0-0.6-0.1-0.6-0.4c0-0.2,0.1-0.2,0.3-0.3c0.2,0,0.8,0,1.9,0c0.5,0,0.8-0.2,0.8-0.5v-0.7v-13
		c0-1.8-0.2-3-0.7-3.7c-0.4-0.7-1.2-1-2.4-1c-1.1,0-2.1,0.4-2.9,1.1c-0.3,0.3-0.6,0.7-0.8,1c-0.1,0.9-0.2,1.5-0.2,1.8
		c0,2.4,0.5,5.3,0.3,8.2c-0.1,1.6-0.2,2.4-0.6,3.5c-0.3,0.7-0.7,1.3-1,2.4c-0.2,0.7-0.2,1.3-0.2,1.7c-0.4,0.1-0.7,0.1-1.1,0.2
		c0-0.4,0-0.9,0.2-1.6c0.1-0.6,0.3-1,0.6-1.7c0.5-1.4,0.8-2.1,0.9-2.4c0.2-0.7,0.3-1.2,0.2-4.3c0-1.1-0.1-2.7-0.3-4.8
		c-0.2-2.5-0.3-3.7-0.3-3.8c-0.1-0.8-0.1-1.2-0.1-1.2c0-0.1,0-0.2,0-0.5c0-0.2-0.1-0.4-0.1-0.5c0.3-0.1,0.6-0.3,0.9-0.4
		c0,0.1,0.1,0.2,0.1,0.4c0.1,0.3,0.1,0.5,0.2,0.8c0.1,0.4,0.1,0.8,0.1,0.8c0,0.2,0.1,0.5,0.1,0.9c0.3-0.5,0.9-1.3,1.8-1.9
		c1.1-0.7,2.4-1.1,3.9-1.1c2.8,0,4.5,1,5,3.1c1.2-2.1,3.2-3.1,5.8-3.1c2.3,0,3.9,0.8,4.7,2.5c0.8,1.7,0.7,3.4,0.7,4.3
		c-0.1,1.6-0.1,4.2-0.1,9.4c0,1.6,0,2.8,0.1,3.6C110.6,96.6,110.1,96.6,109.6,96.5z"/>
	<path class="st1" d="M129.8,91.8c0,1.8-0.7,3.3-2,4.6c-1.3,1.3-2.9,1.9-4.7,1.9c-1,0-2.3-0.4-3.8-1.1c-0.4-0.2-0.8-0.3-1.1-0.3
		c-0.4,0-0.8,0.3-1,0.9c-0.1,0.4-0.3,0.6-0.5,0.6s-0.3-0.1-0.3-0.4c0-0.2,0-0.3,0-0.6c0-0.6,0-1.5,0-2.8c0-0.1,0-0.5,0-1.1
		c0-0.7,0-1.1,0-1.3v-0.5c0-0.3,0.1-0.5,0.3-0.5c0.2,0,0.4,0.2,0.4,0.5c0.2,1.4,0.6,2.6,1.2,3.4c1.2,1.6,2.9,2.4,5,2.4
		c1.1,0,2-0.3,2.7-1s1-1.5,1-2.6c0-1.2-0.4-2.2-1.2-2.9c-0.4-0.4-0.8-0.7-1.2-0.9c-0.4-0.2-1.4-0.6-3.1-1.2
		c-3.5-1.3-5.2-3.3-5.2-5.9c0-1.7,0.6-3.2,1.8-4.4c1.2-1.2,2.6-1.8,4.4-1.8c0.6,0,1.5,0.2,2.8,0.6c0.3,0.1,0.6,0.1,0.8,0.1
		c0.6,0,1-0.3,1.2-0.9c0.1-0.3,0.2-0.5,0.4-0.5s0.3,0.1,0.3,0.4c0,0,0,0.1,0,0.3v2c0,0.7,0,1.9,0.2,3.6v0.1c0,0.2-0.1,0.4-0.4,0.4
		c-0.2,0-0.4-0.5-0.7-1.4c-0.3-1.1-0.9-2-1.8-2.7s-1.8-1-3-1c-1.1,0-1.9,0.3-2.6,1s-1,1.5-1,2.5c0,1.6,1,2.7,3.1,3.6
		c3.2,1.3,5.3,2.3,6.2,3.2C129.2,88.9,129.8,90.2,129.8,91.8z"/>
	<path class="st1" d="M152.4,87.4c0,3.1-0.9,5.7-2.6,7.8c-1.8,2.1-4,3.1-6.6,3.1c-0.8,0-2-0.1-3.3-0.9c-1.1-0.7-1.6-1.6-1.9-2.1
		c-0.4-5.2-0.8-10.3-1.2-15.5c0.1-0.1,0.2-0.1,0.3-0.2c0.4-0.3,0.8-0.3,0.9-0.4c0.8-0.2,0.7-1,1.9-1.6c1.3-0.7,2.5-0.8,3.2-0.8
		c2.7,0,4.9,1,6.6,3C151.5,81.8,152.4,84.3,152.4,87.4z M148.2,87.4c0-2.4-0.4-4.5-1.1-6.2c-1-2.4-2.5-3.6-4.6-3.6
		c-1.1,0-2,0.4-2.8,1.1c-0.8,0.8-1.2,1.7-1.3,2.8c-0.1,1.4,0,4.3,0,8.6c0,2.2,0.1,3.5,0.1,4c0.1,0.5,0.3,0.9,0.6,1.4
		c0.9,1.3,2.1,1.9,3.5,1.9c1.6,0,2.8-0.7,3.7-2.1C147.6,93.3,148.2,90.7,148.2,87.4z"/>
	<path class="st1" d="M173.8,95.6c0,0.5-0.5,1.1-1.6,1.7s-2.2,0.9-3.2,0.9c-2.1,0-3.2-1.1-3.3-3.3c-1.2,2.3-3,3.5-5.5,3.5
		c-1.3,0-2.4-0.4-3.3-1.2c-0.9-0.8-1.3-1.8-1.3-3.1c0-2.5,1.5-4.6,4.6-6.1c1-0.5,2.9-1,5.5-1.5v-1.2c0-2.7-0.1-4.5-0.4-5.4
		c-0.5-1.6-1.6-2.4-3.4-2.4c-1.1,0-2,0.3-2.7,0.9s-1.1,1.3-1.1,2.2c0,0.3,0.2,0.4,0.6,0.4c0.4,0,0.7,0.2,1,0.6s0.5,0.8,0.5,1.3
		c0,1.4-0.7,2.1-2,2.1c-0.7,0-1.3-0.2-1.8-0.7s-0.7-1.1-0.7-1.8c0-1.5,0.6-2.7,1.7-3.8c1.3-1.2,3-1.7,5.3-1.7c3.4,0,5.5,0.9,6.3,2.8
		c0.3,0.7,0.4,2.1,0.4,4.2v8.7c0,1.4,0,2.3,0,2.5c0.2,1.1,0.6,1.7,1.4,1.7c0.9,0,1.6-0.3,2.1-0.9c0.3-0.3,0.5-0.5,0.7-0.5
		C173.7,95.3,173.8,95.4,173.8,95.6z M165.6,90.7v-3.4c-2.3,0.5-3.9,1.2-4.9,2.1s-1.5,2-1.5,3.4c0,1,0.3,1.8,0.9,2.4
		c0.6,0.6,1.3,1,2.1,1c1.3,0,2.4-0.7,3.2-2.2C165.5,93.6,165.6,92.5,165.6,90.7z"/>
	<path class="st1" d="M190.7,81.6c0,1.4-0.7,2.1-2.1,2.1c-1.4,0-2.1-0.7-2.1-2c0-0.3,0.2-0.9,0.5-1.5c0.1-0.2,0.1-0.4,0.1-0.7
		c0-0.6-0.3-1.1-1-1.5s-1.4-0.6-2.4-0.6c-1.9,0-3.3,0.8-4.3,2.4s-1.5,3.9-1.5,6.8c0,3.3,0.5,5.8,1.6,7.6c1.1,1.8,2.6,2.7,4.5,2.7
		c1.3,0,2.5-0.4,3.5-1.2c0.5-0.4,1.1-1.1,1.8-2.1c0.2-0.2,0.3-0.2,0.4-0.2c0.3,0,0.5,0.1,0.5,0.4c0,0.4-0.5,1.2-1.6,2.3
		c-1.4,1.5-3.2,2.2-5.4,2.2c-2.7,0-5-1-6.8-2.9c-1.8-2-2.7-4.4-2.7-7.4c0-3.2,0.9-5.9,2.8-8c1.9-2.1,4.3-3.1,7.1-3.1
		c1.8,0,3.5,0.5,4.9,1.4C190,79.2,190.7,80.4,190.7,81.6z"/>
	<path class="st1" d="M210.2,92.6c0,0.3-0.2,0.9-0.7,1.7c-0.5,0.8-1,1.4-1.5,1.9c-1.3,1.4-3.1,2.1-5.4,2.1c-2.8,0-5.1-1-7-3
		s-2.8-4.5-2.8-7.5c0-3.1,0.9-5.7,2.7-7.8c1.8-2.1,4-3.1,6.7-3.1c2.2,0,4.1,0.6,5.5,1.9c1.5,1.3,2.3,2.9,2.4,5c-1,0.2-2.3,0.2-4,0.2
		h-3.3c-0.2,0-2.1,0-5.6,0.1c-0.2,1-0.2,2-0.2,2.9c0,3.1,0.6,5.5,1.8,7.2s2.9,2.5,5.1,2.5c1.2,0,2.2-0.3,3-0.8
		c0.7-0.6,1.6-1.6,2.4-3.2c0.1-0.2,0.3-0.4,0.5-0.4C210.1,92.3,210.2,92.4,210.2,92.6z M206.2,83.1c-0.1-3.7-1.5-5.6-4-5.6
		s-4.1,1.9-4.7,5.6H206.2z"/>
</g>
<g>
	<g>
		<path class="st1" d="M136.8,80.1c0,4.6,0.2,9.1,0.2,13.6c0,2.4,0.2,4.7-0.2,7c-0.3,1.5-0.7,2.8-2.2,3.3c-1.1,0.4-2.3,0.6-3.1,1.6
			s-0.7,2-0.7,3.2c0,1.9-1.1,3.1-2.5,4.1c-2.3,1.7-4.9,2.6-7.5,3.7c-1.5,0.7-2.6,1.8-2.8,3.5c-0.3,2.6,0,5.5,0.7,8
			c0.2,0.9,0.5,1.7,0,2.6c-0.8,1.2-2.3,1.5-3.5,2.2c-0.9,0.6-1.6,1.4-1.7,2.5c-0.2,1.7-0.4,3.1-1.2,4.6c-0.3,0.6,0.6,1.1,0.9,0.5
			c0.6-1.2,1.1-2.4,1.2-3.7c0.2-1.4,0.1-2.3,1.5-3.1c1.7-0.9,3.9-1.6,4.1-3.8c0-0.7-0.2-1.5-0.4-2.2c-0.4-1.4-0.6-2.9-0.6-4.4
			c-0.1-2.4-0.3-4.6,2.2-5.7c2.6-1.2,5.1-2,7.4-3.7c1-0.7,2-1.5,2.6-2.6c0.7-1.3,0.4-2.4,0.6-3.8c0.3-2,2-2.1,3.5-2.7
			c1-0.4,1.7-1.2,2.1-2.3c0.8-2,0.8-4.3,0.7-6.4c-0.2-5.4-0.3-10.8-0.3-16.2C137.8,79.4,136.8,79.4,136.8,80.1L136.8,80.1z"/>
	</g>
</g>
<g>
	<g>
		<path class="st1" d="M86.8,97c-0.4,3.1,1.1,5.3,3.4,7.1c2.6,2,4.2,5.4,4.6,8.6c0.4,3.5-1.5,6.3-4,8.6c-1.2,1.2-2.6,2.2-4,3.2
			c-1,0.7-2.2,1.4-2.8,2.5c-1.9,3.2,0.2,7.2,2,9.9c0.4,0.6,1.3,0,0.9-0.5c-1.6-2.5-4.2-7.1-1.3-9.7c1.1-1,2.5-1.8,3.6-2.7
			c1.2-1,2.4-2,3.5-3.1c1.9-2.1,3.3-4.6,3.1-7.5c-0.1-2.9-1.3-5.8-3-8.1c-0.9-1.1-1.9-1.9-3-2.8c-1.6-1.4-2.3-3.4-2.1-5.5
			C88,96.4,86.9,96.4,86.8,97L86.8,97z"/>
	</g>
</g>
<g>
	<g>
		<path class="st1" d="M90.4,104.2c2.6,1.6,5.5,2.4,8.5,2c1.2-0.2,2.5-0.8,3.7-0.6c1.5,0.3,2,1.5,2.4,2.7c1,2.8,2.7,4.6,5.5,5.8
			c2.8,1.2,7.5,2.3,7.4,6.1c0,0.7,1,0.7,1.1,0c0-3.2-2.8-4.9-5.4-6c-1.8-0.7-3.7-1.3-5.2-2.5c-1.4-1.1-1.9-2.6-2.5-4.2
			c-0.8-2.2-2.5-3.3-4.8-2.9c-1.6,0.3-3,0.8-4.7,0.6c-1.9-0.2-3.8-0.9-5.4-1.9C90.4,103,89.8,103.9,90.4,104.2L90.4,104.2z"/>
	</g>
</g>
<g>
	<path class="st1" d="M114,97.4c0,0.2-0.3,0.3-0.8,0.3c-0.1,0-0.4,0-1,0s-1.4,0-2.4,0c-0.1,0-1.7,0-4.9,0c-0.4,0-0.6-0.1-0.6-0.3
		c0-0.2,0.2-0.3,0.5-0.3h0.4h1.2c0.5,0,0.7-0.1,0.8-0.3c0.1-0.2,0.1-0.8,0.1-2V83.3c0-1.8-0.2-3.1-0.7-3.8c-0.5-0.8-1.3-1.1-2.4-1.1
		c-0.8,0-1.5,0.2-2.2,0.7c-0.5,0.3-0.8,0.7-1.1,1.1c-0.3,0.4-0.3,0.7-0.4,0.7c0,0,0.2-1.7,1.3-2.8c1.2-1.2,3-1.1,4-1.1
		c2.3,0,3.8,0.8,4.6,2.5c0.4,0.9,0.6,2.3,0.6,4.3v11.4c0,1.1,0.1,1.6,0.2,1.7s0.6,0.2,1.4,0.3h0.8C113.8,97.1,114,97.2,114,97.4z"/>
</g>
<g>
	<g>
		<path class="st0" d="M37.8,55.4c1.1-6.4,1.7-15.9-3.5-20.9c-1.7-1.7-3.7-2.3-5.8-3.1c-1.6-0.6-3-1.7-4-3.1
			c-1.5-2.1-2.1-4.9-2.3-7.5c-0.3-5.2,1.1-10.5,3-15.3c-0.3,0-0.5,0.1-0.8,0.1c1.8,2.6,3.8,5,6.1,7.2c1.4,1.3,2.5,2.8,3.6,4.4
			c1.5,2.1,2.9,4.4,3.4,7c0.7,3.5-0.7,6.6-3.4,8.9c-0.4,0.4,0.2,1,0.6,0.6c2.4-2.1,4-5,3.8-8.2c-0.2-2.8-1.5-5.5-3-7.8
			c-1-1.6-2.1-3.3-3.5-4.6c-2.5-2.5-4.9-5.1-7-8c-0.2-0.3-0.7-0.3-0.8,0.1c-2.7,6.6-4.7,15.1-1.5,21.9c1.2,2.5,3.2,4.2,5.8,5.2
			c2.5,0.9,4.7,1.9,6.3,4.2c1.1,1.6,1.7,3.4,2.1,5.3c1,4.3,0.7,9-0.1,13.3C36.8,55.7,37.7,56,37.8,55.4L37.8,55.4z"/>
	</g>
</g>
<g>
	<g>
		<path class="st0" d="M31.5,66.7c0.8-2.8,1.6-5.9,3.7-8.1c1.9-1.9,3.5-4,5.2-6.1c0.9-1.1,1.9-2.3,2.9-3.3c1.2-1.1,2.4-2.2,3.3-3.6
			c0.8-1.3,1.5-2.6,2.3-3.9c1-1.5,2.5-2.8,4.1-3.7c2.7-1.5,5.6-2.4,8-4.4c2.6-2.1,4.4-5.1,5.5-8.3c1.3-3.9,1.5-8.4,0.5-12.4
			c-1.3-5.2-4.8-9.7-9.2-12.8c-0.1-0.1-0.3-0.1-0.5,0C48.7,5.8,41.5,15.9,42,26.6c0.2,4.6,1.9,9.1,4.4,12.9c0.3,0.5,1.1,0,0.8-0.5
			c-3-4.4-4.6-9.6-4.3-15c0.3-4.5,2-8.8,4.5-12.6c2-3,4.4-5.6,7-7.9c0.8-0.7,1.6-1.4,2.5-2C57,1.4,57.5,1.2,57.6,1
			c0.1-0.3-0.2,0.1-0.2,0c0.1,0.2,0.4,0.3,0.6,0.4c6,4.5,9.2,11.4,8.5,18.8C66,25.5,63.6,30.9,59,33.8c-2,1.3-4.2,2-6.2,3.1
			s-3.7,2.7-4.9,4.6c-0.8,1.3-1.5,2.6-2.3,3.8c-0.9,1.3-2,2.2-3.1,3.3c-1.9,1.8-3.4,4-5.1,6c-1.3,1.6-3.1,3-4.2,4.8
			c-1.3,2-1.9,4.6-2.6,6.8C30.4,67,31.3,67.2,31.5,66.7L31.5,66.7z"/>
	</g>
</g>
<g>
	<g>
		<path class="st1" d="M31.7,96.1c0.2,3-1.4,5.5-3.6,7.4c-1.1,1-2.4,1.8-3.8,2.2c-0.9,0.3-1.8,0.4-2.7,0.8c-1.9,0.9-2.5,2.8-2.6,4.8
			c-0.2,3.3-1.3,6.3-3.4,8.9c-0.4,0.5,0.3,1.3,0.7,0.7c1.9-2.4,3.3-5.2,3.6-8.3c0.1-1.2,0-2.6,0.6-3.7s1.5-1.6,2.7-1.9
			c4.8-1.3,9.9-5.5,9.5-11C32.7,95.4,31.6,95.4,31.7,96.1L31.7,96.1z"/>
	</g>
</g>
<path class="st2" d="M30.8,91.9c0.1,0.7,0.3,1.8,0.8,3c1,2.6,2.7,4,4.6,8.7c1.9,4.7,4.3,11.1,2.1,16.6c-1.1,2.7-3,4.7-4.8,6.1"/>
<g>
	<g>
		<path class="st1" d="M29.7,139.3c-0.7-2.3-0.8-4.9-0.2-7.3c0.4-1.5,1.1-2.7,2.3-3.7c1.4-1.2,2.8-2.4,4.1-3.6
			c0.5-0.4-0.2-1.1-0.7-0.7c-1.4,1.3-2.9,2.6-4.3,3.8c-1.2,1-1.9,2.5-2.3,3.9c-0.7,2.5-0.6,5.3,0.2,7.8
			C29,140.1,29.9,139.9,29.7,139.3L29.7,139.3z"/>
	</g>
</g>
<path class="st1" d="M29.9,66.1c-1.4,4.8-1.7,10.3-1.7,10.3c-0.1,2-0.1,4-0.1,7.9c0,3.4,0,8.7,1.4,10.5c0.1,0.1,0.6,0.8,1,1.9
	c0.2,0.5,0.4,1,0.4,1.7c0,0.5,0,1.3-0.5,2.3c0.4-0.1,0.9-0.3,1.3-0.4c0.2-0.3,0.4-0.8,0.6-1.4c0.2-0.7,0.2-1.3,0.2-1.8
	c1.3,1.4,1.6,1.7,1.7,1.6c0.1,0-0.6-0.7-1-1.9c0-0.1-0.1-0.2-0.1-0.3c-0.2-0.5-0.2-0.9-0.2-1c-0.1-0.8-1.1-2.4-1.1-2.5
	c-0.5-0.7-0.5-1.6-0.5-4.4c0-3.4,0-5.1,0-6c0.1-4.6,0-5.6,0.1-9.4c0.1-1.7,0.1-2.9,0.3-4.2c0.2-1.6,0.6-3,0.7-4.1
	c0-0.2,0.1-0.8,0.2-1.7c0-0.2,0.1-0.3,0.1-0.4c-0.3,0-0.7,0-1,0c-0.1,0.2-0.3,0.4-0.5,0.7C31,63.8,30.9,64,30.8,64
	C30.5,64.5,30.1,65.4,29.9,66.1z"/>
<path class="st1" d="M88.1,97.6c0.3-0.7,0.8-1.4,0.8-1.5c0.4-0.6,0.5-1.2,0.8-2.4c0.3-1.4,0.4-2.8,0.4-5.5c0.1-3.1,0.1-4.7,0-5.5
	c0-0.1,0-0.9,0-2.6c0-0.1,0-0.3,0.1-0.5c0-0.1,0.1-0.2,0.2-0.3c-0.1-0.1-0.3-0.3-0.4-0.6c-0.5-0.6-0.8-1.2-1.1-1.8
	c-0.3-0.6-0.4-0.8-0.7-1.3c-0.2-0.2-0.3-0.4-0.4-0.5c-0.2,0.3-0.4,0.6-0.6,0.8c0,0.1,0.1,0.3,0.1,0.3c0.1,0.3,0.1,0.6,0.1,1.2
	c0,0.4,0,0.5,0,0.8c0.1,3.3-0.2,8.7-0.2,8.7c-0.2,3.8-0.4,5.6-0.4,6.1c-0.2,1.2-0.4,2.6-0.2,4.4c0.1,1.2,0.4,2.1,0.6,2.7
	c0.2-0.5,0.4-0.8,0.5-1c0,0,0.1-0.1,0.2-0.3c0.1-0.2,0-0.3,0-0.4C87.8,98.4,87.8,98.2,88.1,97.6z"/>
<path class="st1" d="M135.9,80.8c-0.1,1.1-0.2,1.9-0.2,2c-0.2,2.9,0,8.6,0,8.6c0,1.4,0.2,6.9,0.2,9.2c0,0,0,0.5-0.1,1.2
	c0,0,0,0.5-0.2,1.2c0,0.2-0.1,0.4-0.3,0.6c-0.1,0.1-0.2,0.2-0.3,0.2c0.2,0.3,0.5,0.5,0.7,0.8c0.6-0.3,1.6-0.8,2.2-1.9
	c0.5-0.9,0.5-1.8,0.5-2.2c-0.2-4.2,0.1-8.5,0-12.7c-0.1-1.8-0.1-4.4,0.3-7.6c-0.3-0.3-0.6-0.6-1-1c-0.4-0.5-0.6-0.9-0.8-1.3
	c-0.4-0.1-0.7-0.3-1.1-0.4c0.1,0.7,0.2,1.3,0.2,1.8C136,79.8,136,80.3,135.9,80.8z"/>
<text transform="matrix(1 0 0 1 0.239 98.294)" class="st1 st3 st4">b</text>
</svg>
